<?xml version="1.0" encoding="UTF-8"?>
<!DOCTYPE svg PUBLIC "-//W3C//DTD SVG 1.1//EN" "http://www.w3.org/Graphics/SVG/1.1/DTD/svg11.dtd">
<svg xmlns="http://www.w3.org/2000/svg" version="1.1" width="512px" height="512px" style="shape-rendering:geometricPrecision; text-rendering:geometricPrecision; image-rendering:optimizeQuality; fill-rule:evenodd; clip-rule:evenodd" xmlns:xlink="http://www.w3.org/1999/xlink">
<g><path style="opacity:0.963" fill="#000000" d="M 249.5,-0.5 C 253.5,-0.5 257.5,-0.5 261.5,-0.5C 266.894,2.39702 270.727,6.73035 273,12.5C 273.667,32.8333 273.667,53.1667 273,73.5C 268.732,85.2174 260.566,89.384 248.5,86C 242.836,83.6676 239.336,79.5009 238,73.5C 237.333,53.1667 237.333,32.8333 238,12.5C 240.273,6.73035 244.106,2.39702 249.5,-0.5 Z"/></g>
<g><path style="opacity:0.962" fill="#000000" d="M 80.5,69.5 C 86.072,68.9896 91.4053,69.8229 96.5,72C 110.333,85.8333 124.167,99.6667 138,113.5C 143.292,123.171 141.792,131.671 133.5,139C 126.806,142.277 120.139,142.277 113.5,139C 99.3333,124.833 85.1667,110.667 71,96.5C 65.9584,84.4516 69.1251,75.4516 80.5,69.5 Z"/></g>
<g><path style="opacity:0.962" fill="#000000" d="M 419.5,69.5 C 429.108,67.8904 436.275,71.2237 441,79.5C 443.169,85.3144 442.835,90.9811 440,96.5C 425.833,110.667 411.667,124.833 397.5,139C 382.218,145.026 372.884,140.026 369.5,124C 369.975,120.263 371.142,116.763 373,113.5C 386.833,99.6667 400.667,85.8333 414.5,72C 416.315,71.2432 417.981,70.4098 419.5,69.5 Z"/></g>
<g><path style="opacity:0.967" fill="#000000" d="M 241.5,126.5 C 297.356,124.006 339.856,146.339 369,193.5C 393.41,243.865 389.077,291.532 356,336.5C 318.734,379.029 272.568,393.196 217.5,379C 165.383,360.21 135.216,323.377 127,268.5C 124.32,213.017 146.487,170.851 193.5,142C 208.746,134.083 224.746,128.917 241.5,126.5 Z M 246.5,162.5 C 295.923,161.461 328.757,184.127 345,230.5C 354.687,275.469 340.52,310.636 302.5,336C 265.493,354.797 230.16,352.13 196.5,328C 163.722,297.384 154.888,260.884 170,218.5C 185.625,186.277 211.125,167.611 246.5,162.5 Z"/></g>
<g><path style="opacity:0.963" fill="#000000" d="M -0.5,261.5 C -0.5,257.5 -0.5,253.5 -0.5,249.5C 2.39702,244.106 6.73035,240.273 12.5,238C 32.8333,237.333 53.1667,237.333 73.5,238C 85.2174,242.268 89.384,250.434 86,262.5C 83.6676,268.164 79.5009,271.664 73.5,273C 53.1667,273.667 32.8333,273.667 12.5,273C 6.0828,271.411 1.74947,267.577 -0.5,261.5 Z"/></g>
<g><path style="opacity:0.963" fill="#000000" d="M 511.5,249.5 C 511.5,253.5 511.5,257.5 511.5,261.5C 508.603,266.894 504.27,270.727 498.5,273C 478.167,273.667 457.833,273.667 437.5,273C 425.783,268.732 421.616,260.566 425,248.5C 427.332,242.836 431.499,239.336 437.5,238C 457.833,237.333 478.167,237.333 498.5,238C 504.27,240.273 508.603,244.106 511.5,249.5 Z"/></g>
<g><path style="opacity:0.962" fill="#000000" d="M 118.5,369.5 C 131.783,367.95 139.45,373.783 141.5,387C 141.025,390.737 139.858,394.237 138,397.5C 124.167,411.333 110.333,425.167 96.5,439C 83.5914,444.783 74.4247,441.283 69,428.5C 68.0631,423.597 68.7298,418.93 71,414.5C 85.1667,400.333 99.3333,386.167 113.5,372C 115.315,371.243 116.981,370.41 118.5,369.5 Z"/></g>
<g><path style="opacity:0.95" fill="#000000" d="M 381.5,369.5 C 387.638,368.732 393.305,369.899 398.5,373C 411.667,386.167 424.833,399.333 438,412.5C 443.536,422.296 442.37,431.13 434.5,439C 426.975,442.588 419.642,442.255 412.5,438C 399.333,424.833 386.167,411.667 373,398.5C 366.113,385.722 368.947,376.055 381.5,369.5 Z"/></g>
<g><path style="opacity:0.963" fill="#000000" d="M 261.5,511.5 C 257.5,511.5 253.5,511.5 249.5,511.5C 244.106,508.603 240.273,504.27 238,498.5C 237.333,478.167 237.333,457.833 238,437.5C 242.268,425.783 250.434,421.616 262.5,425C 268.164,427.332 271.664,431.499 273,437.5C 273.667,457.833 273.667,478.167 273,498.5C 270.727,504.27 266.894,508.603 261.5,511.5 Z"/></g>
</svg>
